<?xml version="1.0" encoding="UTF-8" standalone="no"?>
<!-- Created with Inkscape (http://www.inkscape.org/) -->

<svg
   xmlns:dc="http://purl.org/dc/elements/1.1/"
   xmlns:cc="http://creativecommons.org/ns#"
   xmlns:rdf="http://www.w3.org/1999/02/22-rdf-syntax-ns#"
   xmlns:svg="http://www.w3.org/2000/svg"
   xmlns="http://www.w3.org/2000/svg"
   xmlns:sodipodi="http://sodipodi.sourceforge.net/DTD/sodipodi-0.dtd"
   xmlns:inkscape="http://www.inkscape.org/namespaces/inkscape"
   width="64"
   height="64"
   id="svg2"
   version="1.1"
   inkscape:version="0.48.2 r9819"
   sodipodi:docname="ic_menu_settings_.svg">
  <defs
     id="defs4">
    <filter
       inkscape:collect="always"
       id="filter4020">
      <feGaussianBlur
         inkscape:collect="always"
         stdDeviation="0.52564821"
         id="feGaussianBlur4022" />
    </filter>
  </defs>
  <sodipodi:namedview
     id="base"
     pagecolor="#ffffff"
     bordercolor="#666666"
     borderopacity="1.0"
     inkscape:pageopacity="0.0"
     inkscape:pageshadow="2"
     inkscape:zoom="3.959798"
     inkscape:cx="35.148111"
     inkscape:cy="28.248855"
     inkscape:document-units="px"
     inkscape:current-layer="g4006"
     showgrid="false"
     inkscape:window-width="1600"
     inkscape:window-height="838"
     inkscape:window-x="-8"
     inkscape:window-y="-8"
     inkscape:window-maximized="1" />
  <metadata
     id="metadata7">
    <rdf:RDF>
      <cc:Work
         rdf:about="">
        <dc:format>image/svg+xml</dc:format>
        <dc:type
           rdf:resource="http://purl.org/dc/dcmitype/StillImage" />
        <dc:title></dc:title>
      </cc:Work>
    </rdf:RDF>
  </metadata>
  <g
     inkscape:label="Layer 1"
     inkscape:groupmode="layer"
     id="layer1"
     transform="translate(0,-988.36218)">
    <g
       id="g3973"
       transform="matrix(0,1,-1,0,1052.1728,977.42148)" />
    <g
       transform="matrix(0.70710678,0.70710678,-0.70710678,0.70710678,722.63652,269.10252)"
       id="g3985" />
    <g
       id="g3979"
       transform="matrix(0.70710678,-0.70710678,0.70710678,0.70710678,-719.55691,330.79895)" />
    <g
       id="g3963"
       transform="translate(-11.237947,1.2626907)" />
    <g
       transform="translate(-3.9285718,4.4642858)"
       id="g4006">
      <path
         inkscape:connector-curvature="0"
         id="path4014"
         d="m 36.405847,991.0186 c -2.155004,0 -3.879073,3.4135 -3.984916,7.67102 -2.072243,0.62023 -3.986825,1.59078 -5.678507,2.85578 -3.113676,-3.03207 -6.822025,-4.2692 -8.368326,-2.72295 -1.572006,1.57195 -0.321362,5.42345 2.82265,8.56755 0.09673,0.097 0.200938,0.1725 0.298869,0.2657 -0.882007,1.683 -1.510408,3.5351 -1.826421,5.4792 -0.167692,0 -0.327796,-0.033 -0.498114,-0.033 -4.446306,0 -8.036249,1.7949 -8.036249,4.0181 0,2.223 3.589943,4.0182 8.036249,4.0182 0.340175,0 0.667147,-0.013 0.996229,-0.033 0.513384,1.7657 1.299781,3.4163 2.291327,4.9148 -0.227697,0.2029 -0.442193,0.409 -0.664153,0.631 -3.144012,3.144 -4.427863,6.9622 -2.855857,8.5343 1.572007,1.5719 5.390352,0.288 8.534364,-2.8559 0.262001,-0.262 0.4951,-0.5273 0.730568,-0.797 1.538522,0.9309 3.221698,1.6457 5.014354,2.0922 -0.01108,0.2435 -0.03321,0.4812 -0.03321,0.7305 0,4.4463 1.82818,8.0694 4.051333,8.0694 2.223152,0 4.018124,-3.6231 4.018124,-8.0694 0,-0.1927 -0.02654,-0.3752 -0.03321,-0.5646 1.948718,-0.3982 3.781321,-1.123 5.446054,-2.092 0.0222,0.022 0.04402,0.044 0.06641,0.066 3.144012,3.144 6.962357,4.4278 8.534364,2.8559 1.549622,-1.5497 0.323535,-5.3171 -2.723027,-8.4348 1.193421,-1.7627 2.103896,-3.7501 2.623404,-5.8778 4.115147,-0.179 7.338888,-1.881 7.338888,-3.9849 0,-2.0871 -3.171692,-3.7827 -7.239265,-3.9849 -0.481947,-2.3124 -1.421383,-4.4441 -2.689819,-6.3426 2.590153,-2.9671 3.566294,-6.29652 2.125289,-7.73743 -0.491252,-0.49126 -1.217379,-0.69912 -2.058874,-0.66416 -1.661185,0.0691 -3.821647,1.11546 -5.811337,2.88909 -1.937316,-1.16041 -4.119081,-1.95821 -6.442283,-2.3245 -0.232655,-4.00373 -1.920659,-7.1397 -3.984917,-7.1397 z m 0.863399,15.9065 c 5.261461,0 9.530593,4.2691 9.530593,9.5305 0,5.2615 -4.269132,9.5307 -9.530593,9.5307 -5.261461,0 -9.530593,-4.2692 -9.530593,-9.5307 0,-5.2614 4.269132,-9.5305 9.530593,-9.5305 z"
         style="fill:#000000;fill-opacity:1;stroke:none" />
      <path
         style="fill:#ffffff;fill-opacity:1;stroke:none;filter:url(#filter4020)"
         d="m 36.430318,993.54398 c -2.027964,0 -3.650396,3.21227 -3.75,7.21882 -1.950081,0.5837 -3.751795,1.497 -5.34375,2.6875 -2.93012,-2.8534 -6.419856,-4.01762 -7.875,-2.5625 -1.479334,1.4793 -0.302418,5.1038 2.65625,8.0625 0.09103,0.091 0.189092,0.1623 0.28125,0.25 -0.830011,1.5838 -1.421367,3.3267 -1.71875,5.1562 -0.157807,0 -0.308472,-0.031 -0.46875,-0.031 -4.184189,0 -7.5625,1.6891 -7.5625,3.7812 0,2.092 3.378311,3.7813 7.5625,3.7813 0.320121,0 0.627818,-0.012 0.9375,-0.031 0.483119,1.6616 1.223157,3.2149 2.15625,4.625 -0.214274,0.191 -0.416125,0.3849 -0.625,0.5938 -2.958668,2.9587 -4.166834,6.5518 -2.6875,8.0312 1.479334,1.4793 5.072582,0.2711 8.03125,-2.6875 0.246556,-0.2466 0.465913,-0.4962 0.6875,-0.75 1.447824,0.876 3.031774,1.5487 4.71875,1.9688 -0.01043,0.2292 -0.03125,0.4529 -0.03125,0.6875 0,4.1842 1.720406,7.5937 3.8125,7.5937 2.092094,0 3.78125,-3.4095 3.78125,-7.5937 0,-0.1814 -0.02498,-0.3531 -0.03125,-0.5313 1.833838,-0.3748 3.558406,-1.0568 5.125,-1.9687 0.02089,0.021 0.04143,0.041 0.0625,0.062 2.958668,2.9587 6.551916,4.1668 8.03125,2.6875 1.45827,-1.4583 0.304463,-5.0036 -2.5625,-7.9375 1.123067,-1.6588 1.979868,-3.529 2.46875,-5.5313 3.872553,-0.1685 6.90625,-1.7701 6.90625,-3.75 0,-1.9641 -2.984716,-3.5597 -6.8125,-3.75 -0.453535,-2.1761 -1.33759,-4.1821 -2.53125,-5.9687 2.43746,-2.7922 3.356056,-5.9253 2,-7.2813 -0.462292,-0.46232 -1.145612,-0.65792 -1.9375,-0.62502 -1.563256,0.065 -3.596355,1.04972 -5.46875,2.71882 -1.823108,-1.092 -3.876255,-1.8428 -6.0625,-2.1875 -0.21894,-3.76772 -1.807434,-6.71882 -3.75,-6.71882 z m 0.8125,14.96882 c 4.95129,0 8.96875,4.0174 8.96875,8.9687 0,4.9513 -4.01746,8.9688 -8.96875,8.9688 -4.95129,0 -8.96875,-4.0175 -8.96875,-8.9688 0,-4.9513 4.01746,-8.9687 8.96875,-8.9687 z"
         id="path4008"
         inkscape:connector-curvature="0" />
    </g>
    <g
       id="g4002"
       transform="translate(206.25,-51.607143)">
      <path
         inkscape:connector-curvature="0"
         id="path3957"
         d="m 33.160714,994.54075 c -2.027964,0 -3.650396,3.21227 -3.75,7.21875 -1.950081,0.5837 -3.751795,1.497 -5.34375,2.6875 -2.93012,-2.8534 -6.419856,-4.0176 -7.875,-2.5625 -1.479334,1.4793 -0.302418,5.1038 2.65625,8.0625 0.09103,0.091 0.189092,0.1623 0.28125,0.25 -0.830011,1.5838 -1.421367,3.3268 -1.71875,5.1563 -0.157807,0 -0.308472,-0.031 -0.46875,-0.031 -4.184189,0 -7.5624997,1.6892 -7.5624997,3.7813 0,2.092 3.3783107,3.7812 7.5624997,3.7812 0.320121,0 0.627818,-0.012 0.9375,-0.031 0.483119,1.6616 1.223157,3.2149 2.15625,4.625 -0.214274,0.191 -0.416125,0.3848 -0.625,0.5937 -2.958668,2.9587 -4.166834,6.5519 -2.6875,8.0313 1.479334,1.4793 5.072582,0.2711 8.03125,-2.6875 0.246556,-0.2466 0.465913,-0.4962 0.6875,-0.75 1.447824,0.876 3.031774,1.5486 4.71875,1.9687 -0.01043,0.2292 -0.03125,0.4529 -0.03125,0.6875 0,4.1842 1.720406,7.5938 3.8125,7.5938 2.092094,0 3.78125,-3.4096 3.78125,-7.5938 0,-0.1814 -0.02498,-0.353 -0.03125,-0.5312 1.833838,-0.3748 3.558406,-1.0569 5.125,-1.9688 0.02089,0.021 0.04143,0.041 0.0625,0.062 2.958668,2.9587 6.551916,4.1668 8.03125,2.6875 1.45827,-1.4583 0.304463,-5.0036 -2.5625,-7.9375 1.123067,-1.6588 1.979868,-3.5289 2.46875,-5.5312 3.872553,-0.1685 6.90625,-1.7701 6.90625,-3.75 0,-1.9641 -2.984716,-3.5597 -6.8125,-3.75 -0.453535,-2.1761 -1.33759,-4.1822 -2.53125,-5.9688 2.43746,-2.7922 3.356056,-5.9252 2,-7.2812 -0.462292,-0.4623 -1.145612,-0.6579 -1.9375,-0.625 -1.563256,0.065 -3.596355,1.0496 -5.46875,2.7187 -1.823108,-1.092 -3.876255,-1.8428 -6.0625,-2.1875 -0.21894,-3.76765 -1.807434,-6.71875 -3.75,-6.71875 z"
         style="fill:#000000;fill-opacity:1;stroke:none" />
      <path
         transform="translate(-0.26785714,986.21932)"
         d="m 42.426408,31.801388 c 0,4.95129 -4.013814,8.965104 -8.965104,8.965104 -4.951291,0 -8.965104,-4.013814 -8.965104,-8.965104 0,-4.95129 4.013813,-8.965104 8.965104,-8.965104 4.95129,0 8.965104,4.013814 8.965104,8.965104 z"
         sodipodi:ry="8.9651041"
         sodipodi:rx="8.9651041"
         sodipodi:cy="31.801388"
         sodipodi:cx="33.461304"
         id="path3999"
         style="fill:#ffffff;fill-opacity:1;stroke:none"
         sodipodi:type="arc" />
    </g>
  </g>
</svg>
